<svg width="134" height="40" viewBox="0 0 134 40" fill="none" xmlns="http://www.w3.org/2000/svg">
<path fill-rule="evenodd" clip-rule="evenodd" d="M11.2325 13.1236C17.7735 11.3709 24.5069 15.2584 26.2596 21.7994C28.0122 28.3404 24.1247 35.0737 17.5837 36.8264C11.0427 38.5791 4.30929 34.6915 2.55662 28.1505C0.804065 21.6095 4.69151 14.8762 11.2325 13.1236ZM11.4916 14.0906C10.5855 17.2498 10.3137 21.5459 11.4452 25.7688C12.5768 29.9918 14.9602 33.5765 17.3246 35.8594C21.9873 33.6379 24.7469 28.0057 23.2967 22.5933C21.8465 17.1808 16.6405 13.683 11.4916 14.0906Z" fill="black"/>
<path fill-rule="evenodd" clip-rule="evenodd" d="M12.8549 19.1783C12.4434 20.8418 12.3564 23.1142 12.959 25.3631C13.5615 27.6121 14.7731 29.5366 15.9612 30.7714C19.1604 29.9141 21.0618 26.6209 20.2045 23.4216C19.3474 20.2224 16.054 18.321 12.8549 19.1783Z" fill="black"/>
<path fill-rule="evenodd" clip-rule="evenodd" d="M8.12146 4.72136C8.1473 4.74658 8.17304 4.77201 8.19857 4.79764C10.2963 6.89542 11.2798 9.68818 11.149 11.9914C12.7378 10.9447 14.0044 8.66018 14.0044 6.08198C14.0044 3.42586 12.66 1.08116 11.0039 0.0810547C9.63764 0.906171 8.48353 2.64643 8.12146 4.72136Z" fill="#FF7527"/>
<path fill-rule="evenodd" clip-rule="evenodd" d="M8.12146 4.72136C8.1473 4.74658 8.17304 4.77201 8.19857 4.79764C10.2963 6.89542 11.2798 9.68818 11.149 11.9914C12.7378 10.9447 14.0044 8.66018 14.0044 6.08198C14.0044 3.42586 12.66 1.08116 11.0039 0.0810547C9.63764 0.906171 8.48353 2.64643 8.12146 4.72136Z" fill="black"/>
<path fill-rule="evenodd" clip-rule="evenodd" d="M1.17389 3.33552C0.710122 5.21365 1.41731 7.82233 3.29555 9.70047C5.17379 11.5787 7.78237 12.2859 9.66061 11.8222C10.1244 9.94399 9.4171 7.33541 7.53896 5.45717C5.66072 3.57893 3.05214 2.87174 1.17389 3.33552Z" fill="black"/>
<path d="M41.3012 19.4016H38.8795L42.5634 8.73145H45.4695L49.1534 19.4016H46.7317L44.0605 11.1678H43.9724L41.3012 19.4016ZM41.1398 15.204H46.8491V16.9652H41.1398V15.204Z" fill="black"/>
<path d="M53.1063 22.5718C52.3871 22.5718 51.7707 22.469 51.257 22.2782C50.7433 22.0728 50.347 21.8086 50.0388 21.471C49.7306 21.1334 49.5398 20.7665 49.4517 20.3409L51.5065 20.062C51.5652 20.2235 51.6679 20.3702 51.8 20.517C51.9321 20.6491 52.1082 20.7665 52.3431 20.8546C52.5632 20.928 52.8421 20.972 53.165 20.972C53.6493 20.972 54.0456 20.8546 54.3538 20.6197C54.6767 20.3849 54.8235 20.0033 54.8235 19.4456V17.9779H54.7354C54.6327 18.2127 54.4859 18.4182 54.2951 18.609C54.1043 18.8145 53.8548 18.9759 53.5466 19.0933C53.2384 19.2254 52.8714 19.2841 52.4458 19.2841C51.8441 19.2841 51.301 19.152 50.8167 18.8732C50.3177 18.5943 49.9361 18.154 49.6425 17.5816C49.349 16.9945 49.2022 16.2753 49.2022 15.38C49.2022 14.4701 49.349 13.7215 49.6425 13.1051C49.9361 12.5033 50.3323 12.0484 50.8313 11.7401C51.3157 11.4466 51.8587 11.2852 52.4458 11.2852C52.9008 11.2852 53.2677 11.3732 53.5759 11.52C53.8695 11.6668 54.119 11.8576 54.3098 12.0777C54.4859 12.3125 54.6327 12.518 54.7354 12.7382H54.8235V11.4026H57.025V19.4749C57.025 20.1648 56.8489 20.7372 56.526 21.1921C56.1884 21.6471 55.7334 21.9994 55.1317 22.2195C54.5446 22.4544 53.8695 22.5718 53.1063 22.5718ZM53.1503 17.6256C53.5172 17.6256 53.8108 17.5229 54.0603 17.3468C54.3098 17.1706 54.5006 16.9211 54.6327 16.5836C54.7648 16.246 54.8382 15.835 54.8382 15.3654C54.8382 14.9104 54.7794 14.4994 54.6474 14.1472C54.5153 13.8096 54.3098 13.5307 54.0603 13.3399C53.8108 13.1491 53.5172 13.0611 53.1503 13.0611C52.7834 13.0611 52.4752 13.1638 52.2257 13.3546C51.9761 13.5454 51.8 13.8243 51.6679 14.1619C51.5358 14.5141 51.4771 14.9104 51.4771 15.3654C51.4771 15.835 51.5358 16.2313 51.6679 16.5689C51.8 16.9065 51.9908 17.156 52.2403 17.3468C52.4898 17.5229 52.7834 17.6256 53.1503 17.6256Z" fill="black"/>
<path d="M58.2751 19.4015V11.4026H60.4326V12.7969H60.5207C60.6674 12.2979 60.9023 11.9163 61.2545 11.6668C61.5921 11.4026 61.9884 11.2852 62.4433 11.2852C62.5461 11.2852 62.6635 11.2852 62.7956 11.2998C62.9277 11.3145 63.0451 11.3292 63.1332 11.3585V13.3253C63.0304 13.2959 62.8837 13.2665 62.7075 13.2519C62.5167 13.2225 62.3553 13.2078 62.1938 13.2078C61.8709 13.2078 61.5774 13.2812 61.3279 13.428C61.0784 13.5601 60.8729 13.7509 60.7261 14.0004C60.5794 14.2646 60.506 14.5434 60.506 14.8663V19.4015H58.2751Z" fill="black"/>
<path d="M63.7603 19.4016V11.4026H65.9912V19.4016H63.7603ZM64.0832 10.3606L65.184 7.99756H67.2388L65.6536 10.3606H64.0832Z" fill="black"/>
<path d="M70.8636 19.563C70.0417 19.563 69.3372 19.3869 68.7501 19.0346C68.163 18.6824 67.708 18.198 67.3851 17.5816C67.0769 16.9505 66.9155 16.246 66.9155 15.4241C66.9155 14.6168 67.0769 13.883 67.3998 13.2665C67.7227 12.6501 68.163 12.1658 68.7501 11.8135C69.3372 11.4613 70.0417 11.2852 70.8489 11.2852C71.5534 11.2852 72.1551 11.4172 72.6835 11.6668C73.2119 11.9309 73.6228 12.2832 73.931 12.7382C74.2393 13.1932 74.4007 13.7362 74.4301 14.3526H72.3459C72.2872 13.9564 72.1258 13.6335 71.8763 13.384C71.6268 13.1491 71.2892 13.017 70.8929 13.017C70.5407 13.017 70.2471 13.1198 69.9829 13.2959C69.7334 13.4867 69.528 13.7509 69.3959 14.1178C69.2491 14.4701 69.1757 14.8957 69.1757 15.3947C69.1757 15.9084 69.2491 16.3487 69.3812 16.701C69.528 17.0532 69.7334 17.3321 69.9829 17.5229C70.2471 17.7137 70.5407 17.8017 70.8929 17.8017C71.1424 17.8017 71.3626 17.743 71.5681 17.6403C71.7735 17.5376 71.9497 17.3908 72.0817 17.1853C72.2138 16.9945 72.3019 16.745 72.3459 16.4661H74.4301C74.4007 17.0826 74.2393 17.6109 73.9457 18.0806C73.6375 18.5503 73.2265 18.9025 72.7129 19.1667C72.1845 19.4309 71.5681 19.563 70.8636 19.563Z" fill="black"/>
<path d="M78.971 19.563C78.1638 19.563 77.4593 19.3869 76.8722 19.0346C76.2852 18.697 75.8302 18.2127 75.5073 17.5963C75.1844 16.9652 75.0229 16.246 75.0229 15.4241C75.0229 14.6022 75.1844 13.883 75.5073 13.2519C75.8302 12.6354 76.2852 12.1511 76.8722 11.8135C77.4593 11.4613 78.1638 11.2852 78.971 11.2852C79.7783 11.2852 80.4828 11.4613 81.0699 11.8135C81.6569 12.1511 82.1119 12.6354 82.4348 13.2519C82.743 13.883 82.9045 14.6022 82.9045 15.4241C82.9045 16.246 82.743 16.9652 82.4348 17.5963C82.1119 18.2127 81.6569 18.697 81.0699 19.0346C80.4828 19.3869 79.7783 19.563 78.971 19.563ZM78.9857 17.8311C79.3527 17.8311 79.6609 17.7284 79.8957 17.5229C80.1452 17.3174 80.336 17.0239 80.4681 16.6569C80.5855 16.29 80.6589 15.8791 80.6589 15.4094C80.6589 14.9544 80.5855 14.5288 80.4681 14.1618C80.336 13.8096 80.1452 13.5161 79.8957 13.3106C79.6609 13.0904 79.3527 12.9877 78.9857 12.9877C78.6041 12.9877 78.2959 13.0904 78.0464 13.3106C77.7969 13.5161 77.6061 13.8096 77.474 14.1618C77.3419 14.5288 77.2832 14.9544 77.2832 15.4094C77.2832 15.8791 77.3419 16.29 77.474 16.6569C77.6061 17.0239 77.7969 17.3174 78.0464 17.5229C78.2959 17.7284 78.6041 17.8311 78.9857 17.8311Z" fill="black"/>
<path d="M86.0541 8.73145H83.8378V19.4016H86.0541V8.73145Z" fill="black"/>
<path d="M89.6065 19.5483C89.0928 19.5483 88.6378 19.4603 88.2415 19.2841C87.8453 19.108 87.5224 18.8438 87.2875 18.4916C87.0674 18.1393 86.95 17.699 86.95 17.1706C86.95 16.7157 87.0233 16.3487 87.1848 16.0405C87.3609 15.747 87.5811 15.4975 87.8599 15.3213C88.1388 15.1305 88.4617 14.9984 88.814 14.8957C89.1809 14.8076 89.5625 14.7343 89.9588 14.7049C90.4138 14.6462 90.7954 14.6022 91.0742 14.5581C91.3678 14.5141 91.5733 14.4554 91.7054 14.3673C91.8228 14.2793 91.8962 14.1472 91.8962 13.9857V13.9564C91.8962 13.6188 91.7934 13.3693 91.5879 13.1785C91.3825 13.0024 91.0889 12.9143 90.7073 12.9143C90.311 12.9143 89.9881 13.0024 89.7533 13.1785C89.5185 13.3546 89.357 13.5748 89.2836 13.839L87.2288 13.6628C87.3316 13.1785 87.537 12.7675 87.8453 12.4006C88.1535 12.0484 88.5498 11.7695 89.0341 11.5787C89.5185 11.3879 90.0762 11.2852 90.722 11.2852C91.1623 11.2852 91.5879 11.3439 91.9989 11.4466C92.4099 11.5493 92.7621 11.7108 93.085 11.9309C93.4079 12.1511 93.6574 12.43 93.8336 12.7675C94.0244 13.1198 94.1124 13.5307 94.1124 14.0004V19.4015H92.0136V18.2861H91.9402C91.8228 18.5356 91.6467 18.7558 91.4265 18.9466C91.221 19.1374 90.9568 19.2841 90.6486 19.3869C90.3551 19.5043 90.0028 19.5483 89.6065 19.5483ZM90.2376 18.0219C90.5605 18.0219 90.8541 17.9485 91.1036 17.8311C91.3531 17.699 91.5586 17.5229 91.6907 17.3027C91.8375 17.0679 91.9108 16.8184 91.9108 16.5395V15.6883C91.8375 15.7323 91.7494 15.7763 91.632 15.8204C91.4999 15.8497 91.3678 15.8791 91.221 15.9084C91.0742 15.9378 90.9275 15.9671 90.766 15.9965C90.6192 16.0112 90.4872 16.0258 90.3697 16.0552C90.1055 16.0845 89.8707 16.1432 89.6799 16.2313C89.4891 16.3194 89.3423 16.4221 89.2249 16.5689C89.1222 16.7157 89.0635 16.8771 89.0635 17.0973C89.0635 17.3908 89.1809 17.6256 89.401 17.7871C89.6212 17.9485 89.9001 18.0219 90.2376 18.0219Z" fill="black"/>
<path d="M100.513 8.73145H98.2529V19.4016H100.513V8.73145Z" fill="black"/>
<path d="M101.857 19.4016V8.73145H104.073V12.7383H104.147C104.25 12.5181 104.382 12.3126 104.572 12.0778C104.763 11.8576 104.998 11.6668 105.306 11.5201C105.6 11.3733 105.981 11.2852 106.422 11.2852C107.009 11.2852 107.552 11.4467 108.036 11.7549C108.535 12.0485 108.931 12.5034 109.225 13.1199C109.519 13.7216 109.665 14.4848 109.665 15.4095C109.665 16.3048 109.519 17.0533 109.24 17.6697C108.946 18.2862 108.565 18.7412 108.066 19.0641C107.581 19.3723 107.023 19.5337 106.422 19.5337C105.996 19.5337 105.629 19.4603 105.321 19.3136C105.027 19.1815 104.778 18.9907 104.587 18.7852C104.396 18.565 104.25 18.3449 104.147 18.1247H104.044V19.4016H101.857ZM104.029 15.3948C104.029 15.8792 104.103 16.2901 104.235 16.6424C104.367 16.9946 104.558 17.2735 104.807 17.4643C105.057 17.6697 105.365 17.7578 105.717 17.7578C106.084 17.7578 106.378 17.6697 106.627 17.4643C106.891 17.2588 107.082 16.9946 107.2 16.6277C107.332 16.2754 107.405 15.8645 107.405 15.3948C107.405 14.9398 107.332 14.5289 107.214 14.1766C107.082 13.8244 106.891 13.5602 106.642 13.3547C106.392 13.1639 106.084 13.0612 105.717 13.0612C105.35 13.0612 105.057 13.1492 104.807 13.34C104.558 13.5308 104.367 13.8097 104.235 14.1619C104.103 14.5142 104.029 14.9251 104.029 15.3948Z" fill="black"/>
<path d="M110.623 19.4019V11.4029H112.854V19.4019H110.623ZM111.739 10.3608C111.416 10.3608 111.137 10.2581 110.902 10.0379C110.667 9.81777 110.55 9.55358 110.55 9.24536C110.55 8.93715 110.667 8.67296 110.902 8.45281C111.137 8.23265 111.416 8.11523 111.739 8.11523C112.076 8.11523 112.355 8.23265 112.59 8.45281C112.825 8.67296 112.942 8.93715 112.942 9.24536C112.942 9.55358 112.825 9.81777 112.59 10.0379C112.355 10.2581 112.076 10.3608 111.739 10.3608Z" fill="black"/>
<path d="M114.073 19.4018V18.0809L117.992 13.2228V13.1641H114.205V11.4028H120.663V12.8412L116.979 17.5672V17.6259H120.795V19.4018H114.073Z" fill="black"/>
<path d="M124.27 19.5483C123.756 19.5483 123.301 19.4603 122.905 19.2841C122.509 19.108 122.186 18.8438 121.951 18.4916C121.731 18.1393 121.614 17.699 121.614 17.1706C121.614 16.7157 121.687 16.3487 121.848 16.0405C122.024 15.747 122.245 15.4975 122.523 15.3213C122.802 15.1305 123.125 14.9984 123.477 14.8957C123.844 14.8076 124.226 14.7343 124.622 14.7049C125.077 14.6462 125.459 14.6022 125.738 14.5581C126.031 14.5141 126.237 14.4554 126.369 14.3673C126.486 14.2793 126.56 14.1472 126.56 13.9857V13.9564C126.56 13.6188 126.457 13.3693 126.251 13.1785C126.046 13.0024 125.752 12.9143 125.371 12.9143C124.975 12.9143 124.652 13.0024 124.417 13.1785C124.182 13.3546 124.021 13.5748 123.947 13.839L121.892 13.6628C121.995 13.1785 122.201 12.7675 122.509 12.4006C122.817 12.0484 123.213 11.7695 123.698 11.5787C124.182 11.3879 124.74 11.2852 125.386 11.2852C125.826 11.2852 126.251 11.3439 126.662 11.4466C127.073 11.5493 127.426 11.7108 127.748 11.9309C128.071 12.1511 128.321 12.43 128.497 12.7675C128.688 13.1198 128.776 13.5307 128.776 14.0004V19.4015H126.677V18.2861H126.604C126.486 18.5356 126.31 18.7558 126.09 18.9466C125.885 19.1374 125.62 19.2841 125.312 19.3869C125.019 19.5043 124.666 19.5483 124.27 19.5483ZM124.901 18.0219C125.224 18.0219 125.518 17.9485 125.767 17.8311C126.017 17.699 126.222 17.5229 126.354 17.3027C126.501 17.0679 126.574 16.8184 126.574 16.5395V15.6883C126.501 15.7323 126.413 15.7763 126.295 15.8204C126.163 15.8497 126.031 15.8791 125.885 15.9084C125.738 15.9378 125.591 15.9671 125.43 15.9965C125.283 16.0112 125.151 16.0258 125.033 16.0552C124.769 16.0845 124.534 16.1432 124.343 16.2313C124.153 16.3194 124.006 16.4221 123.888 16.5689C123.786 16.7157 123.727 16.8771 123.727 17.0973C123.727 17.3908 123.844 17.6256 124.065 17.7871C124.285 17.9485 124.564 18.0219 124.901 18.0219Z" fill="black"/>
<path d="M39.9509 23.4082H41.0664L44.9411 32.6988H45.0439L48.9039 23.4082H50.0341V34.0784H49.1241V25.463H49.036L45.4401 34.0784H44.5448L40.949 25.463H40.8609V34.0784H39.9509V23.4082Z" fill="black"/>
<path d="M54.4035 34.2544C53.9191 34.2544 53.4788 34.1664 53.0825 33.9755C52.6716 33.7847 52.3634 33.5059 52.1285 33.1536C51.8937 32.7867 51.7616 32.3611 51.7616 31.8474C51.7616 31.4511 51.8497 31.1135 51.9964 30.8347C52.1432 30.5705 52.3487 30.3503 52.6275 30.1742C52.9064 29.9981 53.2293 29.866 53.5962 29.7633C53.9778 29.6605 54.3888 29.5871 54.8438 29.5284C55.2988 29.4697 55.6657 29.4257 55.9886 29.3817C56.2968 29.3376 56.5317 29.2789 56.6931 29.1909C56.8546 29.0881 56.9426 28.9413 56.9426 28.7505V28.5597C56.9426 28.0167 56.7812 27.5764 56.4583 27.2682C56.1207 26.9599 55.6657 26.7985 55.0493 26.7985C54.4769 26.7985 54.0072 26.9306 53.6403 27.1801C53.2733 27.4296 53.0238 27.7232 52.8771 28.0754L51.9964 27.7525C52.1726 27.3122 52.4221 26.9746 52.745 26.7104C53.0679 26.4463 53.4201 26.2555 53.8164 26.138C54.2127 26.0206 54.6236 25.9619 55.0199 25.9619C55.3281 25.9619 55.651 26.0059 55.9886 26.0793C56.3115 26.1674 56.6197 26.2995 56.9133 26.4903C57.1921 26.6958 57.427 26.9599 57.6031 27.3122C57.7792 27.6644 57.8673 28.1048 57.8673 28.6478V34.0783H56.9426V32.8161H56.8839C56.7665 33.0509 56.605 33.2711 56.3849 33.5059C56.1647 33.726 55.8859 33.9022 55.563 34.0489C55.2254 34.1957 54.8438 34.2544 54.4035 34.2544ZM54.5209 33.4178C55.0199 33.4178 55.4455 33.3004 55.8125 33.0803C56.1647 32.8601 56.4436 32.5666 56.6491 32.2143C56.8399 31.8474 56.9426 31.4511 56.9426 31.0108V29.8513C56.8692 29.9247 56.7518 29.9834 56.5904 30.0274C56.4289 30.0861 56.2381 30.1302 56.0326 30.1595C55.8272 30.2036 55.6217 30.2476 55.4015 30.2623C55.196 30.2916 55.0052 30.321 54.8438 30.3357C54.3888 30.3944 54.0072 30.4824 53.6843 30.5998C53.3614 30.7173 53.1266 30.8787 52.9504 31.0842C52.7743 31.2897 52.7009 31.5538 52.7009 31.8767C52.7009 32.3758 52.8771 32.7427 53.2146 33.0069C53.5669 33.2711 54.0072 33.4178 54.5209 33.4178Z" fill="black"/>
<path d="M60.7499 29.0734V34.0783H59.8106V26.0793H60.7206V27.3269H60.8086C60.9848 26.9159 61.2783 26.593 61.6746 26.3435C62.0855 26.094 62.5699 25.9619 63.157 25.9619C63.7 25.9619 64.1697 26.0793 64.5806 26.2995C64.9916 26.5343 65.2998 26.8572 65.5346 27.2975C65.7548 27.7232 65.8722 28.2662 65.8722 28.8973V34.0783H64.9476V28.956C64.9476 28.2956 64.7568 27.7672 64.3898 27.3856C64.0229 27.004 63.5386 26.8132 62.9221 26.8132C62.4965 26.8132 62.1296 26.9012 61.8067 27.092C61.4691 27.2682 61.2196 27.5324 61.0288 27.8699C60.838 28.2075 60.7499 28.6038 60.7499 29.0734Z" fill="black"/>
<path d="M70.0489 34.2544C69.5646 34.2544 69.1242 34.1664 68.728 33.9755C68.317 33.7847 68.0088 33.5059 67.774 33.1536C67.5391 32.7867 67.407 32.3611 67.407 31.8474C67.407 31.4511 67.4951 31.1135 67.6419 30.8347C67.7886 30.5705 67.9941 30.3503 68.273 30.1742C68.5518 29.9981 68.8747 29.866 69.2417 29.7633C69.6233 29.6605 70.0342 29.5871 70.4892 29.5284C70.9442 29.4697 71.3111 29.4257 71.634 29.3817C71.9422 29.3376 72.1771 29.2789 72.3385 29.1909C72.4999 29.0881 72.588 28.9413 72.588 28.7505V28.5597C72.588 28.0167 72.4266 27.5764 72.1037 27.2682C71.7661 26.9599 71.3111 26.7985 70.6947 26.7985C70.1223 26.7985 69.6526 26.9306 69.2857 27.1801C68.9188 27.4296 68.6693 27.7232 68.5225 28.0754L67.6419 27.7525C67.818 27.3122 68.0675 26.9746 68.3904 26.7104C68.7133 26.4463 69.0655 26.2555 69.4618 26.138C69.8581 26.0206 70.269 25.9619 70.6653 25.9619C70.9735 25.9619 71.2964 26.0059 71.634 26.0793C71.9569 26.1674 72.2651 26.2995 72.5587 26.4903C72.8375 26.6958 73.0723 26.9599 73.2485 27.3122C73.4246 27.6644 73.5127 28.1048 73.5127 28.6478V34.0783H72.588V32.8161H72.5293C72.4119 33.0509 72.2504 33.2711 72.0303 33.5059C71.8101 33.726 71.5313 33.9022 71.2084 34.0489C70.8708 34.1957 70.4892 34.2544 70.0489 34.2544ZM70.1663 33.4178C70.6653 33.4178 71.091 33.3004 71.4579 33.0803C71.8101 32.8601 72.089 32.5666 72.2945 32.2143C72.4853 31.8474 72.588 31.4511 72.588 31.0108V29.8513C72.5146 29.9247 72.3972 29.9834 72.2358 30.0274C72.0743 30.0861 71.8835 30.1302 71.678 30.1595C71.4726 30.2036 71.2671 30.2476 71.0469 30.2623C70.8415 30.2916 70.6507 30.321 70.4892 30.3357C70.0342 30.3944 69.6526 30.4824 69.3297 30.5998C69.0068 30.7173 68.772 30.8787 68.5959 31.0842C68.4198 31.2897 68.3464 31.5538 68.3464 31.8767C68.3464 32.3758 68.5225 32.7427 68.8601 33.0069C69.2123 33.2711 69.6526 33.4178 70.1663 33.4178Z" fill="black"/>
<path d="M78.5246 37.2485C77.9669 37.2485 77.4972 37.1751 77.0862 37.043C76.6753 36.8963 76.323 36.7055 76.0442 36.456C75.7653 36.2211 75.5452 35.9423 75.3837 35.6487L76.1469 35.135C76.2643 35.3405 76.4258 35.546 76.6166 35.7368C76.8074 35.9276 77.0569 36.089 77.3651 36.2211C77.6733 36.3532 78.0696 36.4119 78.5246 36.4119C79.2291 36.4119 79.8015 36.2358 80.2418 35.8836C80.6674 35.5313 80.8876 34.9736 80.8876 34.2251V32.4198H80.7995C80.6968 32.6693 80.55 32.9188 80.3445 33.1536C80.1391 33.3885 79.8749 33.594 79.552 33.7554C79.2291 33.9168 78.8328 33.9902 78.3485 33.9902C77.7027 33.9902 77.145 33.8435 76.6459 33.5206C76.1469 33.1977 75.7653 32.7574 75.4718 32.1556C75.1929 31.5685 75.0461 30.864 75.0461 30.0568C75.0461 29.2496 75.1929 28.5304 75.4718 27.914C75.736 27.2975 76.1322 26.8279 76.6313 26.4756C77.1156 26.138 77.7027 25.9619 78.3631 25.9619C78.8475 25.9619 79.2584 26.05 79.5813 26.2261C79.9042 26.3875 80.1684 26.6077 80.3592 26.8572C80.55 27.1067 80.7115 27.3562 80.8289 27.6057H80.917V26.0793H81.8269V34.2838C81.8269 34.9589 81.6802 35.5166 81.3866 35.957C81.1078 36.3973 80.7115 36.7202 80.2125 36.9256C79.7134 37.1458 79.1557 37.2485 78.5246 37.2485ZM78.4512 33.139C78.9649 33.139 79.4052 33.0216 79.7721 32.772C80.1391 32.5225 80.4179 32.1703 80.6087 31.7006C80.8142 31.231 80.9023 30.6879 80.9023 30.0421C80.9023 29.411 80.8142 28.8533 80.6234 28.3689C80.4326 27.8846 80.1537 27.503 79.7868 27.2241C79.4199 26.9453 78.9796 26.8132 78.4512 26.8132C77.9228 26.8132 77.4679 26.9453 77.1009 27.2388C76.734 27.5324 76.4551 27.914 76.2643 28.3983C76.0735 28.8973 75.9855 29.4404 75.9855 30.0421C75.9855 30.6439 76.0735 31.1869 76.2643 31.6566C76.4698 32.1263 76.7487 32.4932 77.1156 32.7574C77.4825 33.0069 77.9228 33.139 78.4512 33.139Z" fill="black"/>
<path d="M87.0056 34.2397C86.2571 34.2397 85.6113 34.0636 85.0682 33.7261C84.5252 33.3738 84.0995 32.8895 83.806 32.273C83.5125 31.6419 83.351 30.9374 83.351 30.1155C83.351 29.3229 83.5125 28.6038 83.806 27.9727C84.0995 27.3416 84.5105 26.8572 85.0389 26.4903C85.5672 26.138 86.169 25.9619 86.8588 25.9619C87.2991 25.9619 87.7248 26.0353 88.121 26.1967C88.5173 26.3582 88.8842 26.593 89.2071 26.9306C89.53 27.2535 89.7795 27.6644 89.9703 28.1488C90.1611 28.6478 90.2492 29.2202 90.2492 29.8954V30.3503H83.9968V29.5284H89.3099C89.3099 29.0147 89.2071 28.5597 88.987 28.1488C88.7815 27.7378 88.5026 27.4003 88.1357 27.1654C87.7688 26.9306 87.3432 26.8132 86.8588 26.8132C86.3598 26.8132 85.9048 26.9453 85.5232 27.2095C85.1416 27.4883 84.8334 27.8406 84.6279 28.2809C84.4078 28.7359 84.2903 29.2202 84.2903 29.7486V30.2329C84.2903 30.8787 84.3931 31.4218 84.6279 31.9061C84.8481 32.3758 85.1563 32.7427 85.5672 33.0069C85.9635 33.2711 86.4479 33.3885 87.0056 33.3885C87.3872 33.3885 87.7101 33.3298 88.0036 33.2124C88.2972 33.0949 88.532 32.9482 88.7228 32.7427C88.9283 32.5372 89.075 32.3171 89.1778 32.0822L90.0584 32.3758C89.9263 32.6987 89.7355 33.0216 89.4566 33.3004C89.1778 33.594 88.8402 33.8141 88.4293 33.9902C88.0183 34.1664 87.534 34.2397 87.0056 34.2397Z" fill="black"/>
<path d="M91.7692 34.0788V26.0798H92.6792V27.298H92.7526C92.8993 26.9018 93.1782 26.5789 93.5745 26.3294C93.9854 26.0798 94.4257 25.9478 94.9394 25.9478C95.0128 25.9478 95.1009 25.9478 95.1889 25.9624C95.277 25.9624 95.3651 25.9624 95.4238 25.9624V26.9164C95.3797 26.9018 95.3064 26.9018 95.2036 26.8871C95.1009 26.8724 94.9835 26.8577 94.8661 26.8577C94.4551 26.8577 94.0735 26.9458 93.7506 27.1219C93.4277 27.298 93.1782 27.5475 92.9874 27.8558C92.7966 28.164 92.7085 28.5162 92.7085 28.9125V34.0788H91.7692Z" fill="black"/>
</svg>
